# xmcd CD database file
#
# Track frame offsets:
#	150
#	13120
#	22955
#	36530
#	44920
#	54855
#	66425
#	78090
#	88105
#	100810
#	109732
#	118422
#	125755
#	134890
#	144000
#	152720
#	161230
#	167885
#	182095
#
# Disc length: 2587 seconds
#
# Revision: 0
# Processed by: cddbd v1.5PL3 Copyright (c) Steve Scherf et al.
# Submitted via: CDex 1.51
#
DISCID=150a1913
DTITLE=みうらじゅん＆安齋肇 - 勝手に観光協会 Vol.1
DYEAR=2003
DGENRE=Blues
TTITLE0=勝手に観光協会のテーマ
TTITLE1=斜陽の恋（青森）
TTITLE2=哀愁ちゃナイト（岩手）
TTITLE3=ガッタ山形（山形）
TTITLE4=新潟レイニーディ（新潟）
TTITLE5=上州の風（群馬）
TTITLE6=恋はGo! Go! Me!!（山梨）
TTITLE7=そっとして富山（富山）
TTITLE8=リメンバーNoto（石川）
TTITLE9=静岡ロンリーナイト（静岡）
TTITLE10=センチメンタルNagoya（愛知）
TTITLE11=びわ湖一円（滋賀）
TTITLE12=ときめきの紀州路（和歌山）
TTITLE13=カニカニラブラブ（鳥取）
TTITLE14=ばってんバテレン（熊本）
TTITLE15=ヘルシー音頭（鹿児島）
TTITLE16=レイドバック沖縄小唄（沖縄）
TTITLE17=エンプティー・サマー（沖縄）
TTITLE18=勝手に観光協会のテーマ
EXTD=YEAR: 2003
EXTT0=
EXTT1=
EXTT2=
EXTT3=
EXTT4=
EXTT5=
EXTT6=
EXTT7=
EXTT8=
EXTT9=
EXTT10=
EXTT11=
EXTT12=
EXTT13=
EXTT14=
EXTT15=
EXTT16=
EXTT17=
EXTT18=
PLAYORDER=
